<?xml version="1.0" standalone="no"?>
<!DOCTYPE svg PUBLIC "-//W3C//DTD SVG 20010904//EN"
 "http://www.w3.org/TR/2001/REC-SVG-20010904/DTD/svg10.dtd">
<svg version="1.0" xmlns="http://www.w3.org/2000/svg"
 width="862.000000pt" height="824.000000pt" viewBox="0 0 862.000000 824.000000"
 preserveAspectRatio="xMidYMid meet">

<g transform="translate(0.000000,824.000000) scale(0.100000,-0.100000)"
fill="#000000" stroke="none">
<path d="M8404 8046 c-26 -12 -44 -38 -104 -153 -235 -447 -402 -731 -636
-1083 -755 -1136 -1616 -2013 -2499 -2547 -55 -33 -114 -67 -131 -76 l-30 -16
-33 102 c-37 111 -125 292 -192 390 -297 440 -743 734 -1399 922 -456 131
-942 154 -1350 65 -313 -68 -613 -225 -781 -408 -328 -359 -302 -787 70 -1145
275 -264 760 -483 1311 -591 251 -50 618 -71 877 -50 376 29 770 127 1152 285
l164 68 -6 -122 c-36 -796 -728 -1489 -1822 -1822 -273 -83 -545 -141 -885
-189 -262 -37 -599 -56 -980 -56 l-325 1 41 37 c23 20 123 108 222 196 207
181 222 205 187 280 -27 57 -107 84 -161 53 -12 -7 -96 -77 -186 -157 -91 -80
-262 -230 -380 -335 l-216 -189 184 -121 c872 -569 961 -625 999 -625 97 0
153 99 101 182 -6 10 -89 69 -184 131 -96 62 -239 154 -318 206 -80 51 -144
95 -142 97 2 2 118 4 258 5 311 3 688 26 885 54 17 2 82 12 145 20 229 33 488
87 710 149 343 97 681 237 950 394 580 339 970 813 1105 1340 40 157 49 237
50 419 0 170 0 172 23 183 56 25 329 191 457 278 431 292 847 655 1274 1112
526 564 1072 1318 1481 2045 37 66 78 138 90 160 76 132 190 376 190 404 0 46
-24 86 -64 105 -41 19 -61 20 -102 2z m-5629 -2587 c357 -32 786 -156 1110
-322 343 -175 635 -459 784 -762 56 -113 111 -264 111 -304 0 -41 -455 -218
-745 -289 -269 -67 -500 -95 -780 -95 -351 0 -656 49 -985 157 -497 162 -837
393 -959 650 -217 454 288 910 1074 969 85 6 294 4 390 -4z"/>
</g>
</svg>
